<?xml version="1.0" encoding="UTF-8"?>
<svg width="182px" height="67px" viewBox="0 0 182 67" version="1.1" xmlns="http://www.w3.org/2000/svg" xmlns:xlink="http://www.w3.org/1999/xlink">
    <title>logo</title>
    <g id="Page-1" stroke="none" stroke-width="1" fill="none" fill-rule="evenodd">
        <g id="Artboard" transform="translate(-74.000000, -85.000000)" fill="#94FFB4" fill-rule="nonzero">
            <path d="M124.816,151 L124.816,131.272 C124.816,125.44 128.56,121.552 134.032,121.552 C138.856,121.552 142.168,124.864 142.168,129.616 C142.168,136.096 136.48,138.328 131.224,137.464 L131.872,141.424 C139.432,142.504 146.632,137.824 146.632,129.472 C146.632,122.272 141.16,117.592 134.896,117.592 C129.568,117.592 126.472,120.112 125.104,122.056 L124.816,122.056 L124.816,109.096 L151.672,109.096 L151.672,105.352 L93.856,105.352 L93.856,109.096 L120.712,109.096 L120.712,127.744 C120.712,133.576 116.968,137.464 111.496,137.464 C106.6,137.464 103.36,134.08 103.36,129.4 C103.36,122.92 109.048,120.688 114.304,121.552 L113.656,117.592 C106.096,116.512 98.896,121.192 98.896,129.544 C98.896,136.672 104.44,141.424 110.704,141.424 C116.032,141.424 119.056,138.904 120.424,136.96 L120.712,136.96 L120.712,151 L124.816,151 Z M87.736,151 L87.736,109.096 L96.736,109.096 L96.736,105.352 L87.736,105.352 L87.736,98.656 C87.736,92.536 92.056,89.08 99.76,89.08 C110.632,89.08 117.688,95.2 121.072,100.24 L124.384,98.08 C120.856,92.608 112.216,85.192 99.76,85.192 C89.68,85.192 83.56,90.52 83.56,98.584 L83.56,105.352 L74.56,105.352 L74.56,109.096 L83.56,109.096 L83.56,151 L87.736,151 Z M170.011077,151.648 L173.395077,149.344 L164.539077,137.608 C162.811077,135.304 161.371077,133.648 159.787077,131.776 L159.931077,131.56 C160.723077,131.848 162.163077,131.92 162.811077,131.92 C165.403077,131.92 167.779077,131.128 169.363077,129.328 C172.099077,130.264 176.131077,130.912 179.659077,130.912 C183.043077,130.912 185.275077,130.696 186.787077,130.336 L186.787077,151 L190.963077,151 L190.963077,109.096 L199.963077,109.096 L199.963077,105.352 L148.915077,105.352 L148.915077,109.096 L167.203077,109.096 L167.203077,123.064 C167.203077,126.592 165.475077,128.104 161.947077,128.104 C158.275077,128.104 156.115077,126.088 155.107077,125.008 L151.939077,127.528 L170.011077,151.648 Z M179.731077,127.168 C176.851077,127.168 173.683077,126.736 171.091077,125.944 C171.307077,125.296 171.379077,124.504 171.379077,123.64 L171.379077,109.096 L186.787077,109.096 L186.787077,126.376 C184.987077,126.808 182.467077,127.168 179.731077,127.168 Z M210.259077,151 L210.259077,109.096 L219.259077,109.096 L219.259077,105.352 L197.083077,105.352 L197.083077,109.096 L206.083077,109.096 L206.083077,151 L210.259077,151 Z M246.526154,151 L246.526154,109.096 L255.526154,109.096 L255.526154,105.352 L216.502154,105.352 L216.502154,109.096 L242.350154,109.096 L242.350154,123.424 L223.414154,123.424 L220.174154,126.16 C220.246154,129.184 221.758154,132.784 224.062154,134.44 L227.014154,133.576 L227.014154,127.312 L242.350154,127.312 L242.350154,151 L246.526154,151 Z" id="logo"></path>
        </g>
    </g>
</svg>